<svg width="456" height="269" viewBox="0 0 456 269" fill="none" xmlns="http://www.w3.org/2000/svg">
<path d="M5 244.5H455.5" stroke="black"/>
<path d="M107.5 106L108.883 103.917L107.376 102.917L105.954 104.035L107.5 106ZM173 149.5L171.617 151.583L173.281 152.688L174.726 151.308L173 149.5ZM316.5 12.5L317.583 10.2469L316.025 9.49751L314.774 10.6918L316.5 12.5ZM342.5 25L344.014 23.0109L343.812 22.857L343.583 22.7469L342.5 25ZM386.5 58.5L384.986 60.4891L386.798 61.8691L388.34 60.1923L386.5 58.5ZM440.498 2.39544C440.44 1.01594 439.275 -0.0555592 437.895 0.00218749L415.415 0.943224C414.036 1.00097 412.964 2.16609 413.022 3.5456C413.08 4.9251 414.245 5.9966 415.624 5.93885L435.607 5.10237L436.443 25.0849C436.501 26.4644 437.666 27.5359 439.046 27.4781C440.425 27.4204 441.497 26.2553 441.439 24.8758L440.498 2.39544ZM3.54579 190.965L109.046 107.965L105.954 104.035L0.454213 187.035L3.54579 190.965ZM106.117 108.083L171.617 151.583L174.383 147.417L108.883 103.917L106.117 108.083ZM174.726 151.308L318.226 14.3082L314.774 10.6918L171.274 147.692L174.726 151.308ZM315.417 14.7531L341.417 27.2531L343.583 22.7469L317.583 10.2469L315.417 14.7531ZM340.986 26.9891L384.986 60.4891L388.014 56.5109L344.014 23.0109L340.986 26.9891ZM388.34 60.1923L439.84 4.19229L436.16 0.807715L384.66 56.8077L388.34 60.1923Z" fill="#547751"/>
<line x1="108.5" y1="110.996" x2="109.5" y2="243.996" stroke="black" stroke-opacity="0.26"/>
<line x1="214.5" y1="110.996" x2="215.5" y2="243.996" stroke="black" stroke-opacity="0.26"/>
<line x1="318.5" y1="16.9934" x2="321.5" y2="243.993" stroke="black" stroke-opacity="0.26"/>
<line x1="386.5" y1="62.9945" x2="388.5" y2="243.994" stroke="black" stroke-opacity="0.26"/>
<g filter="url(#filter0_d_140_295)">
<path d="M94.6996 260V259.205L97.1605 256.655C97.4233 256.378 97.6399 256.135 97.8104 255.927C97.9832 255.716 98.1122 255.516 98.1974 255.327C98.2827 255.137 98.3253 254.936 98.3253 254.723C98.3253 254.482 98.2685 254.273 98.1548 254.098C98.0412 253.92 97.8861 253.784 97.6896 253.69C97.4931 253.593 97.2718 253.544 97.0256 253.544C96.7652 253.544 96.5379 253.597 96.3438 253.704C96.1496 253.81 96.0005 253.961 95.8963 254.155C95.7921 254.349 95.7401 254.576 95.7401 254.837H94.6925C94.6925 254.394 94.7943 254.007 94.9979 253.675C95.2015 253.344 95.4808 253.087 95.8359 252.905C96.1911 252.72 96.5947 252.628 97.0469 252.628C97.5038 252.628 97.9063 252.719 98.2543 252.901C98.6046 253.081 98.8781 253.327 99.0746 253.64C99.2711 253.95 99.3693 254.3 99.3693 254.691C99.3693 254.961 99.3184 255.225 99.2166 255.483C99.1172 255.741 98.9432 256.029 98.6946 256.346C98.446 256.661 98.1004 257.043 97.6577 257.493L96.2124 259.006V259.059H99.4865V260H94.6996ZM101.547 260V254.545H102.566V255.433H102.633C102.747 255.133 102.933 254.898 103.191 254.73C103.449 254.56 103.758 254.474 104.118 254.474C104.482 254.474 104.788 254.56 105.034 254.73C105.282 254.901 105.466 255.135 105.584 255.433H105.641C105.771 255.142 105.978 254.91 106.262 254.737C106.547 254.562 106.885 254.474 107.278 254.474C107.773 254.474 108.177 254.629 108.489 254.94C108.804 255.25 108.961 255.717 108.961 256.342V260H107.9V256.442C107.9 256.072 107.799 255.805 107.598 255.639C107.396 255.473 107.156 255.391 106.877 255.391C106.531 255.391 106.262 255.497 106.071 255.71C105.879 255.921 105.783 256.192 105.783 256.523V260H104.725V256.374C104.725 256.078 104.633 255.84 104.448 255.661C104.263 255.481 104.023 255.391 103.727 255.391C103.526 255.391 103.34 255.444 103.169 255.55C103.001 255.655 102.865 255.8 102.761 255.987C102.659 256.174 102.608 256.391 102.608 256.637V260H101.547ZM112.672 260.121C112.326 260.121 112.014 260.057 111.734 259.929C111.455 259.799 111.234 259.611 111.07 259.364C110.909 259.118 110.829 258.816 110.829 258.459C110.829 258.151 110.888 257.898 111.006 257.699C111.125 257.5 111.285 257.343 111.486 257.227C111.687 257.111 111.912 257.023 112.16 256.964C112.409 256.905 112.662 256.86 112.92 256.829C113.247 256.791 113.512 256.76 113.716 256.737C113.919 256.71 114.067 256.669 114.16 256.612C114.252 256.555 114.298 256.463 114.298 256.335V256.31C114.298 256 114.211 255.76 114.035 255.589C113.863 255.419 113.605 255.334 113.261 255.334C112.904 255.334 112.622 255.413 112.416 255.572C112.213 255.728 112.072 255.902 111.994 256.094L110.996 255.866C111.114 255.535 111.287 255.268 111.514 255.064C111.744 254.858 112.008 254.709 112.306 254.616C112.604 254.522 112.918 254.474 113.247 254.474C113.465 254.474 113.696 254.5 113.94 254.553C114.186 254.602 114.415 254.695 114.629 254.83C114.844 254.964 115.02 255.157 115.158 255.408C115.295 255.657 115.364 255.98 115.364 256.378V260H114.327V259.254H114.284C114.215 259.392 114.112 259.527 113.975 259.659C113.838 259.792 113.661 259.902 113.446 259.989C113.231 260.077 112.973 260.121 112.672 260.121ZM112.903 259.268C113.196 259.268 113.447 259.21 113.656 259.094C113.866 258.978 114.026 258.827 114.135 258.64C114.246 258.451 114.302 258.248 114.302 258.033V257.33C114.264 257.367 114.191 257.403 114.082 257.436C113.975 257.467 113.853 257.494 113.716 257.518C113.579 257.539 113.445 257.559 113.315 257.578C113.184 257.595 113.075 257.609 112.988 257.621C112.782 257.647 112.594 257.691 112.423 257.752C112.255 257.814 112.12 257.902 112.018 258.018C111.919 258.132 111.869 258.284 111.869 258.473C111.869 258.736 111.966 258.935 112.16 259.07C112.355 259.202 112.602 259.268 112.903 259.268ZM117.478 260V254.545H118.504V255.412H118.561C118.66 255.118 118.836 254.888 119.087 254.719C119.34 254.549 119.626 254.464 119.946 254.464C120.012 254.464 120.09 254.466 120.18 254.471C120.273 254.476 120.345 254.482 120.397 254.489V255.504C120.354 255.492 120.279 255.479 120.17 255.465C120.061 255.449 119.952 255.44 119.843 255.44C119.592 255.44 119.368 255.494 119.172 255.6C118.978 255.704 118.824 255.85 118.71 256.037C118.596 256.222 118.54 256.432 118.54 256.669V260H117.478Z" fill="#547751"/>
</g>
<g filter="url(#filter1_d_140_295)">
<path d="M209.459 252.727V260H208.358V253.828H208.315L206.575 254.964V253.913L208.39 252.727H209.459ZM212.126 260V259.205L214.587 256.655C214.85 256.378 215.066 256.135 215.237 255.927C215.41 255.716 215.539 255.516 215.624 255.327C215.709 255.137 215.752 254.936 215.752 254.723C215.752 254.482 215.695 254.273 215.581 254.098C215.468 253.92 215.313 253.784 215.116 253.69C214.92 253.593 214.698 253.544 214.452 253.544C214.192 253.544 213.964 253.597 213.77 253.704C213.576 253.81 213.427 253.961 213.323 254.155C213.219 254.349 213.167 254.576 213.167 254.837H212.119C212.119 254.394 212.221 254.007 212.424 253.675C212.628 253.344 212.907 253.087 213.262 252.905C213.618 252.72 214.021 252.628 214.473 252.628C214.93 252.628 215.333 252.719 215.681 252.901C216.031 253.081 216.305 253.327 216.501 253.64C216.698 253.95 216.796 254.3 216.796 254.691C216.796 254.961 216.745 255.225 216.643 255.483C216.544 255.741 216.37 256.029 216.121 256.346C215.873 256.661 215.527 257.043 215.084 257.493L213.639 259.006V259.059H216.913V260H212.126ZM218.973 260V254.545H219.992V255.433H220.06C220.173 255.133 220.359 254.898 220.617 254.73C220.875 254.56 221.184 254.474 221.544 254.474C221.909 254.474 222.214 254.56 222.46 254.73C222.709 254.901 222.892 255.135 223.011 255.433H223.068C223.198 255.142 223.405 254.91 223.689 254.737C223.973 254.562 224.312 254.474 224.705 254.474C225.199 254.474 225.603 254.629 225.916 254.94C226.23 255.25 226.388 255.717 226.388 256.342V260H225.326V256.442C225.326 256.072 225.226 255.805 225.024 255.639C224.823 255.473 224.583 255.391 224.303 255.391C223.958 255.391 223.689 255.497 223.497 255.71C223.306 255.921 223.21 256.192 223.21 256.523V260H222.151V256.374C222.151 256.078 222.059 255.84 221.874 255.661C221.69 255.481 221.449 255.391 221.154 255.391C220.952 255.391 220.766 255.444 220.596 255.55C220.428 255.655 220.292 255.8 220.188 255.987C220.086 256.174 220.035 256.391 220.035 256.637V260H218.973ZM230.098 260.121C229.753 260.121 229.44 260.057 229.161 259.929C228.882 259.799 228.66 259.611 228.497 259.364C228.336 259.118 228.255 258.816 228.255 258.459C228.255 258.151 228.315 257.898 228.433 257.699C228.551 257.5 228.711 257.343 228.912 257.227C229.114 257.111 229.338 257.023 229.587 256.964C229.836 256.905 230.089 256.86 230.347 256.829C230.674 256.791 230.939 256.76 231.142 256.737C231.346 256.71 231.494 256.669 231.586 256.612C231.679 256.555 231.725 256.463 231.725 256.335V256.31C231.725 256 231.637 255.76 231.462 255.589C231.289 255.419 231.031 255.334 230.688 255.334C230.33 255.334 230.049 255.413 229.843 255.572C229.639 255.728 229.498 255.902 229.42 256.094L228.422 255.866C228.541 255.535 228.713 255.268 228.941 255.064C229.17 254.858 229.434 254.709 229.733 254.616C230.031 254.522 230.345 254.474 230.674 254.474C230.891 254.474 231.122 254.5 231.366 254.553C231.612 254.602 231.842 254.695 232.055 254.83C232.271 254.964 232.447 255.157 232.584 255.408C232.722 255.657 232.79 255.98 232.79 256.378V260H231.753V259.254H231.711C231.642 259.392 231.539 259.527 231.402 259.659C231.264 259.792 231.088 259.902 230.873 259.989C230.657 260.077 230.399 260.121 230.098 260.121ZM230.329 259.268C230.623 259.268 230.874 259.21 231.082 259.094C231.293 258.978 231.453 258.827 231.561 258.64C231.673 258.451 231.728 258.248 231.728 258.033V257.33C231.69 257.367 231.617 257.403 231.508 257.436C231.402 257.467 231.28 257.494 231.142 257.518C231.005 257.539 230.871 257.559 230.741 257.578C230.611 257.595 230.502 257.609 230.414 257.621C230.208 257.647 230.02 257.691 229.85 257.752C229.682 257.814 229.547 257.902 229.445 258.018C229.346 258.132 229.296 258.284 229.296 258.473C229.296 258.736 229.393 258.935 229.587 259.07C229.781 259.202 230.029 259.268 230.329 259.268ZM234.904 260V254.545H235.931V255.412H235.987C236.087 255.118 236.262 254.888 236.513 254.719C236.766 254.549 237.053 254.464 237.372 254.464C237.439 254.464 237.517 254.466 237.607 254.471C237.699 254.476 237.771 254.482 237.823 254.489V255.504C237.781 255.492 237.705 255.479 237.596 255.465C237.487 255.449 237.378 255.44 237.269 255.44C237.019 255.44 236.795 255.494 236.598 255.6C236.404 255.704 236.25 255.85 236.137 256.037C236.023 256.222 235.966 256.432 235.966 256.669V260H234.904Z" fill="#547751"/>
</g>
<g filter="url(#filter2_d_140_295)">
<path d="M310.7 260V259.205L313.161 256.655C313.423 256.378 313.64 256.135 313.81 255.927C313.983 255.716 314.112 255.516 314.197 255.327C314.283 255.137 314.325 254.936 314.325 254.723C314.325 254.482 314.268 254.273 314.155 254.098C314.041 253.92 313.886 253.784 313.69 253.69C313.493 253.593 313.272 253.544 313.026 253.544C312.765 253.544 312.538 253.597 312.344 253.704C312.15 253.81 312 253.961 311.896 254.155C311.792 254.349 311.74 254.576 311.74 254.837H310.692C310.692 254.394 310.794 254.007 310.998 253.675C311.201 253.344 311.481 253.087 311.836 252.905C312.191 252.72 312.595 252.628 313.047 252.628C313.504 252.628 313.906 252.719 314.254 252.901C314.605 253.081 314.878 253.327 315.075 253.64C315.271 253.95 315.369 254.3 315.369 254.691C315.369 254.961 315.318 255.225 315.217 255.483C315.117 255.741 314.943 256.029 314.695 256.346C314.446 256.661 314.1 257.043 313.658 257.493L312.212 259.006V259.059H315.487V260H310.7ZM317.532 260V259.205L319.993 256.655C320.256 256.378 320.473 256.135 320.643 255.927C320.816 255.716 320.945 255.516 321.03 255.327C321.115 255.137 321.158 254.936 321.158 254.723C321.158 254.482 321.101 254.273 320.988 254.098C320.874 253.92 320.719 253.784 320.522 253.69C320.326 253.593 320.105 253.544 319.858 253.544C319.598 253.544 319.371 253.597 319.177 253.704C318.982 253.81 318.833 253.961 318.729 254.155C318.625 254.349 318.573 254.576 318.573 254.837H317.525C317.525 254.394 317.627 254.007 317.831 253.675C318.034 253.344 318.314 253.087 318.669 252.905C319.024 252.72 319.428 252.628 319.88 252.628C320.337 252.628 320.739 252.719 321.087 252.901C321.437 253.081 321.711 253.327 321.907 253.64C322.104 253.95 322.202 254.3 322.202 254.691C322.202 254.961 322.151 255.225 322.049 255.483C321.95 255.741 321.776 256.029 321.527 256.346C321.279 256.661 320.933 257.043 320.49 257.493L319.045 259.006V259.059H322.319V260H317.532ZM324.379 260V254.545H325.399V255.433H325.466C325.58 255.133 325.766 254.898 326.024 254.73C326.282 254.56 326.591 254.474 326.95 254.474C327.315 254.474 327.62 254.56 327.867 254.73C328.115 254.901 328.299 255.135 328.417 255.433H328.474C328.604 255.142 328.811 254.91 329.095 254.737C329.379 254.562 329.718 254.474 330.111 254.474C330.606 254.474 331.009 254.629 331.322 254.94C331.637 255.25 331.794 255.717 331.794 256.342V260H330.732V256.442C330.732 256.072 330.632 255.805 330.431 255.639C330.229 255.473 329.989 255.391 329.71 255.391C329.364 255.391 329.095 255.497 328.904 255.71C328.712 255.921 328.616 256.192 328.616 256.523V260H327.558V256.374C327.558 256.078 327.465 255.84 327.281 255.661C327.096 255.481 326.856 255.391 326.56 255.391C326.359 255.391 326.173 255.444 326.002 255.55C325.834 255.655 325.698 255.8 325.594 255.987C325.492 256.174 325.441 256.391 325.441 256.637V260H324.379ZM335.505 260.121C335.159 260.121 334.847 260.057 334.567 259.929C334.288 259.799 334.066 259.611 333.903 259.364C333.742 259.118 333.662 258.816 333.662 258.459C333.662 258.151 333.721 257.898 333.839 257.699C333.958 257.5 334.117 257.343 334.319 257.227C334.52 257.111 334.745 257.023 334.993 256.964C335.242 256.905 335.495 256.86 335.753 256.829C336.08 256.791 336.345 256.76 336.549 256.737C336.752 256.71 336.9 256.669 336.993 256.612C337.085 256.555 337.131 256.463 337.131 256.335V256.31C337.131 256 337.043 255.76 336.868 255.589C336.695 255.419 336.437 255.334 336.094 255.334C335.737 255.334 335.455 255.413 335.249 255.572C335.045 255.728 334.905 255.902 334.826 256.094L333.829 255.866C333.947 255.535 334.12 255.268 334.347 255.064C334.577 254.858 334.841 254.709 335.139 254.616C335.437 254.522 335.751 254.474 336.08 254.474C336.298 254.474 336.529 254.5 336.772 254.553C337.019 254.602 337.248 254.695 337.461 254.83C337.677 254.964 337.853 255.157 337.99 255.408C338.128 255.657 338.196 255.98 338.196 256.378V260H337.159V259.254H337.117C337.048 259.392 336.945 259.527 336.808 259.659C336.671 259.792 336.494 259.902 336.279 259.989C336.063 260.077 335.805 260.121 335.505 260.121ZM335.735 259.268C336.029 259.268 336.28 259.21 336.488 259.094C336.699 258.978 336.859 258.827 336.968 258.64C337.079 258.451 337.135 258.248 337.135 258.033V257.33C337.097 257.367 337.023 257.403 336.914 257.436C336.808 257.467 336.686 257.494 336.549 257.518C336.411 257.539 336.278 257.559 336.147 257.578C336.017 257.595 335.908 257.609 335.821 257.621C335.615 257.647 335.427 257.691 335.256 257.752C335.088 257.814 334.953 257.902 334.851 258.018C334.752 258.132 334.702 258.284 334.702 258.473C334.702 258.736 334.799 258.935 334.993 259.07C335.187 259.202 335.435 259.268 335.735 259.268ZM340.311 260V254.545H341.337V255.412H341.394C341.493 255.118 341.668 254.888 341.919 254.719C342.173 254.549 342.459 254.464 342.779 254.464C342.845 254.464 342.923 254.466 343.013 254.471C343.105 254.476 343.178 254.482 343.23 254.489V255.504C343.187 255.492 343.111 255.479 343.002 255.465C342.894 255.449 342.785 255.44 342.676 255.44C342.425 255.44 342.201 255.494 342.005 255.6C341.81 255.704 341.657 255.85 341.543 256.037C341.429 256.222 341.372 256.432 341.372 256.669V260H340.311Z" fill="#547751"/>
</g>
<g filter="url(#filter3_d_140_295)">
<path d="M381.7 260V259.205L384.161 256.655C384.423 256.378 384.64 256.135 384.81 255.927C384.983 255.716 385.112 255.516 385.197 255.327C385.283 255.137 385.325 254.936 385.325 254.723C385.325 254.482 385.268 254.273 385.155 254.098C385.041 253.92 384.886 253.784 384.69 253.69C384.493 253.593 384.272 253.544 384.026 253.544C383.765 253.544 383.538 253.597 383.344 253.704C383.15 253.81 383 253.961 382.896 254.155C382.792 254.349 382.74 254.576 382.74 254.837H381.692C381.692 254.394 381.794 254.007 381.998 253.675C382.201 253.344 382.481 253.087 382.836 252.905C383.191 252.72 383.595 252.628 384.047 252.628C384.504 252.628 384.906 252.719 385.254 252.901C385.605 253.081 385.878 253.327 386.075 253.64C386.271 253.95 386.369 254.3 386.369 254.691C386.369 254.961 386.318 255.225 386.217 255.483C386.117 255.741 385.943 256.029 385.695 256.346C385.446 256.661 385.1 257.043 384.658 257.493L383.212 259.006V259.059H386.487V260H381.7ZM390.951 252.628C391.275 252.63 391.595 252.689 391.91 252.805C392.224 252.921 392.508 253.111 392.762 253.374C393.017 253.636 393.221 253.991 393.373 254.439C393.526 254.884 393.605 255.438 393.607 256.101C393.607 256.738 393.543 257.305 393.415 257.802C393.287 258.297 393.104 258.714 392.865 259.055C392.628 259.396 392.34 259.656 392.002 259.833C391.663 260.011 391.282 260.099 390.858 260.099C390.425 260.099 390.04 260.014 389.704 259.844C389.368 259.673 389.095 259.438 388.884 259.137C388.673 258.834 388.542 258.486 388.49 258.093H389.573C389.644 258.406 389.788 258.659 390.006 258.853C390.226 259.045 390.51 259.141 390.858 259.141C391.391 259.141 391.807 258.909 392.105 258.445C392.403 257.978 392.553 257.327 392.556 256.491H392.499C392.376 256.695 392.222 256.87 392.037 257.017C391.855 257.164 391.65 257.277 391.423 257.358C391.196 257.438 390.953 257.479 390.695 257.479C390.276 257.479 389.895 257.376 389.552 257.17C389.208 256.964 388.935 256.681 388.731 256.321C388.528 255.961 388.426 255.55 388.426 255.089C388.426 254.629 388.53 254.213 388.738 253.839C388.949 253.465 389.243 253.169 389.619 252.951C389.998 252.731 390.442 252.623 390.951 252.628ZM390.954 253.551C390.677 253.551 390.428 253.62 390.205 253.757C389.985 253.892 389.811 254.076 389.683 254.308C389.555 254.537 389.491 254.793 389.491 255.075C389.491 255.356 389.553 255.612 389.676 255.842C389.801 256.069 389.972 256.25 390.187 256.385C390.405 256.518 390.654 256.584 390.933 256.584C391.141 256.584 391.335 256.544 391.515 256.463C391.695 256.383 391.853 256.271 391.988 256.129C392.123 255.985 392.228 255.821 392.304 255.639C392.379 255.457 392.417 255.265 392.417 255.064C392.417 254.796 392.353 254.548 392.226 254.318C392.1 254.089 391.927 253.904 391.707 253.764C391.487 253.622 391.236 253.551 390.954 253.551ZM395.604 260V254.545H396.623V255.433H396.691C396.804 255.133 396.99 254.898 397.248 254.73C397.506 254.56 397.815 254.474 398.175 254.474C398.54 254.474 398.845 254.56 399.091 254.73C399.34 254.901 399.523 255.135 399.642 255.433H399.698C399.829 255.142 400.036 254.91 400.32 254.737C400.604 254.562 400.943 254.474 401.336 254.474C401.83 254.474 402.234 254.629 402.546 254.94C402.861 255.25 403.019 255.717 403.019 256.342V260H401.957V256.442C401.957 256.072 401.856 255.805 401.655 255.639C401.454 255.473 401.214 255.391 400.934 255.391C400.589 255.391 400.32 255.497 400.128 255.71C399.936 255.921 399.841 256.192 399.841 256.523V260H398.782V256.374C398.782 256.078 398.69 255.84 398.505 255.661C398.321 255.481 398.08 255.391 397.784 255.391C397.583 255.391 397.397 255.444 397.227 255.55C397.059 255.655 396.923 255.8 396.819 255.987C396.717 256.174 396.666 256.391 396.666 256.637V260H395.604ZM406.729 260.121C406.384 260.121 406.071 260.057 405.792 259.929C405.512 259.799 405.291 259.611 405.128 259.364C404.967 259.118 404.886 258.816 404.886 258.459C404.886 258.151 404.945 257.898 405.064 257.699C405.182 257.5 405.342 257.343 405.543 257.227C405.744 257.111 405.969 257.023 406.218 256.964C406.466 256.905 406.72 256.86 406.978 256.829C407.305 256.791 407.57 256.76 407.773 256.737C407.977 256.71 408.125 256.669 408.217 256.612C408.31 256.555 408.356 256.463 408.356 256.335V256.31C408.356 256 408.268 255.76 408.093 255.589C407.92 255.419 407.662 255.334 407.319 255.334C406.961 255.334 406.68 255.413 406.474 255.572C406.27 255.728 406.129 255.902 406.051 256.094L405.053 255.866C405.171 255.535 405.344 255.268 405.572 255.064C405.801 254.858 406.065 254.709 406.363 254.616C406.662 254.522 406.975 254.474 407.305 254.474C407.522 254.474 407.753 254.5 407.997 254.553C408.243 254.602 408.473 254.695 408.686 254.83C408.901 254.964 409.078 255.157 409.215 255.408C409.352 255.657 409.421 255.98 409.421 256.378V260H408.384V259.254H408.341C408.273 259.392 408.17 259.527 408.033 259.659C407.895 259.792 407.719 259.902 407.503 259.989C407.288 260.077 407.03 260.121 406.729 260.121ZM406.96 259.268C407.254 259.268 407.505 259.21 407.713 259.094C407.924 258.978 408.083 258.827 408.192 258.64C408.304 258.451 408.359 258.248 408.359 258.033V257.33C408.321 257.367 408.248 257.403 408.139 257.436C408.033 257.467 407.911 257.494 407.773 257.518C407.636 257.539 407.502 257.559 407.372 257.578C407.242 257.595 407.133 257.609 407.045 257.621C406.839 257.647 406.651 257.691 406.481 257.752C406.313 257.814 406.178 257.902 406.076 258.018C405.976 258.132 405.927 258.284 405.927 258.473C405.927 258.736 406.024 258.935 406.218 259.07C406.412 259.202 406.659 259.268 406.96 259.268ZM411.535 260V254.545H412.562V255.412H412.618C412.718 255.118 412.893 254.888 413.144 254.719C413.397 254.549 413.684 254.464 414.003 254.464C414.07 254.464 414.148 254.466 414.238 254.471C414.33 254.476 414.402 254.482 414.454 254.489V255.504C414.412 255.492 414.336 255.479 414.227 255.465C414.118 255.449 414.009 255.44 413.9 255.44C413.649 255.44 413.426 255.494 413.229 255.6C413.035 255.704 412.881 255.85 412.768 256.037C412.654 256.222 412.597 256.432 412.597 256.669V260H411.535Z" fill="#547751"/>
</g>
<defs>
<filter id="filter0_d_140_295" x="90.6924" y="252.628" width="33.7046" height="15.4929" filterUnits="userSpaceOnUse" color-interpolation-filters="sRGB">
<feFlood flood-opacity="0" result="BackgroundImageFix"/>
<feColorMatrix in="SourceAlpha" type="matrix" values="0 0 0 0 0 0 0 0 0 0 0 0 0 0 0 0 0 0 127 0" result="hardAlpha"/>
<feOffset dy="4"/>
<feGaussianBlur stdDeviation="2"/>
<feComposite in2="hardAlpha" operator="out"/>
<feColorMatrix type="matrix" values="0 0 0 0 0 0 0 0 0 0 0 0 0 0 0 0 0 0 0.25 0"/>
<feBlend mode="normal" in2="BackgroundImageFix" result="effect1_dropShadow_140_295"/>
<feBlend mode="normal" in="SourceGraphic" in2="effect1_dropShadow_140_295" result="shape"/>
</filter>
<filter id="filter1_d_140_295" x="202.575" y="252.628" width="39.248" height="15.4929" filterUnits="userSpaceOnUse" color-interpolation-filters="sRGB">
<feFlood flood-opacity="0" result="BackgroundImageFix"/>
<feColorMatrix in="SourceAlpha" type="matrix" values="0 0 0 0 0 0 0 0 0 0 0 0 0 0 0 0 0 0 127 0" result="hardAlpha"/>
<feOffset dy="4"/>
<feGaussianBlur stdDeviation="2"/>
<feComposite in2="hardAlpha" operator="out"/>
<feColorMatrix type="matrix" values="0 0 0 0 0 0 0 0 0 0 0 0 0 0 0 0 0 0 0.25 0"/>
<feBlend mode="normal" in2="BackgroundImageFix" result="effect1_dropShadow_140_295"/>
<feBlend mode="normal" in="SourceGraphic" in2="effect1_dropShadow_140_295" result="shape"/>
</filter>
<filter id="filter2_d_140_295" x="306.692" y="252.628" width="40.5371" height="15.4929" filterUnits="userSpaceOnUse" color-interpolation-filters="sRGB">
<feFlood flood-opacity="0" result="BackgroundImageFix"/>
<feColorMatrix in="SourceAlpha" type="matrix" values="0 0 0 0 0 0 0 0 0 0 0 0 0 0 0 0 0 0 127 0" result="hardAlpha"/>
<feOffset dy="4"/>
<feGaussianBlur stdDeviation="2"/>
<feComposite in2="hardAlpha" operator="out"/>
<feColorMatrix type="matrix" values="0 0 0 0 0 0 0 0 0 0 0 0 0 0 0 0 0 0 0.25 0"/>
<feBlend mode="normal" in2="BackgroundImageFix" result="effect1_dropShadow_140_295"/>
<feBlend mode="normal" in="SourceGraphic" in2="effect1_dropShadow_140_295" result="shape"/>
</filter>
<filter id="filter3_d_140_295" x="377.692" y="252.621" width="40.7617" height="15.5" filterUnits="userSpaceOnUse" color-interpolation-filters="sRGB">
<feFlood flood-opacity="0" result="BackgroundImageFix"/>
<feColorMatrix in="SourceAlpha" type="matrix" values="0 0 0 0 0 0 0 0 0 0 0 0 0 0 0 0 0 0 127 0" result="hardAlpha"/>
<feOffset dy="4"/>
<feGaussianBlur stdDeviation="2"/>
<feComposite in2="hardAlpha" operator="out"/>
<feColorMatrix type="matrix" values="0 0 0 0 0 0 0 0 0 0 0 0 0 0 0 0 0 0 0.25 0"/>
<feBlend mode="normal" in2="BackgroundImageFix" result="effect1_dropShadow_140_295"/>
<feBlend mode="normal" in="SourceGraphic" in2="effect1_dropShadow_140_295" result="shape"/>
</filter>
</defs>
</svg>
